<svg xmlns="http://www.w3.org/2000/svg" viewBox="0 0 64 64">
  <circle cx="32" cy="32" r="29" fill="#fff" stroke="#e5e5e5" stroke-width="2"/>
  <path transform="translate(32 33.5) scale(1.2) translate(-32 -33.5)" fill="#000" d="M40.316 22.12Q44.1 22.12 46.586 23.704Q49.072 25.288 50.304 27.862Q51.536 30.436 51.536 33.516V45H43.616V34.88Q43.616 33.472 43.242 32.328Q42.868 31.184 42.01 30.502Q41.152 29.82 39.7 29.82Q38.248 29.82 37.412 30.502Q36.576 31.184 36.202 32.328Q35.828 33.472 35.828 34.88V45H27.908V34.88Q27.908 33.472 27.556 32.328Q27.204 31.184 26.346 30.502Q25.488 29.82 24.036 29.82Q22.584 29.82 21.726 30.502Q20.868 31.184 20.494 32.328Q20.12 33.472 20.12 34.88V45H12.2V33.516Q12.2 30.436 13.432 27.862Q14.664 25.288 17.15 23.704Q19.636 22.12 23.42 22.12Q26.324 22.12 28.414 23.11Q30.504 24.1 31.626 25.904Q32.748 27.708 32.748 30.128H30.988Q30.988 27.708 32.22 25.904Q33.452 24.1 35.564 23.11Q37.676 22.12 40.316 22.12Z"/>
</svg>
